HIERARCHY
ROOT ui
{
	 OFFSET 0 0 0
	 CHANNELS 3 XPosition YPosition Z Position
	 EndSite
	 {
	 OFFSET 0 -1 0
	 }
}
ROOT li
{
	 OFFSET 0 0 0
	 CHANNELS 3 XPosition YPosition Z Position
	 EndSite
	 {
	 OFFSET 0 -1 0
	 }
}
ROOT ul
{
	 OFFSET 0 0 0
	 CHANNELS 3 XPosition YPosition Z Position
	 EndSite
	 {
	 OFFSET 0 -1 0
	 }
}
ROOT ll
{
	 OFFSET 0 0 0
	 CHANNELS 3 XPosition YPosition Z Position
	 EndSite
	 {
	 OFFSET 0 -1 0
	 }
}
ROOT tt
{
	 OFFSET 0 0 0
	 CHANNELS 3 XPosition YPosition Z Position
	 EndSite
	 {
	 OFFSET 0 -1 0
	 }
}
ROOT tb
{
	 OFFSET 0 0 0
	 CHANNELS 3 XPosition YPosition Z Position
	 EndSite
	 {
	 OFFSET 0 -1 0
	 }
}
ROOT td
{
	 OFFSET 0 0 0
	 CHANNELS 3 XPosition YPosition Z Position
	 EndSite
	 {
	 OFFSET 0 -1 0
	 }
}
ROOT v
{
	 OFFSET 0 0 0
	 CHANNELS 3 XPosition YPosition Z Position
	 EndSite
	 {
	 OFFSET 0 -1 0
	 }
}
ROOT bn
{
	 OFFSET 0 0 0
	 CHANNELS 3 XPosition YPosition Z Position
	 EndSite
	 {
	 OFFSET 0 -1 0
	 }
}
MOTION
Frames: 11
Frame Time: 0.002
-0.046233150482177736	0.008690459251403809	0		0.535214111328125	-2.371697021484375	0		-0.98674853515625	-0.034202590942382816	0		-0.31059640502929686	-2.628620361328125	0		1.71016162109375	-0.5222193603515625	0		3.153172607421875	0.21531257629394532	0		4.6504296875	0.4172304992675781	0		5.99224169921875	0.5454819946289062	0		-0.37815777587890625	5.87859716796875	0		
0.023012699127197264	6.265770196914673E-4	0		0.5863344116210938	-2.376605224609375	0		-0.9933496704101562	-0.02738247871398926	0		-0.32840264892578125	-2.624726318359375	0		1.7033873291015624	-0.5285786743164063	0		3.12919970703125	0.1860421142578125	0		4.63180517578125	0.41880413818359374	0		5.991771484375	0.5459764404296875	0		-0.4076546325683594	5.858626953125	0		
-0.054685546875	0.0031667749881744383	0		0.52156640625	-2.364249267578125	0		-0.9940654907226563	-0.026604721069335938	0		-0.2575784912109375	-2.648781005859375	0		1.699590576171875	-0.5319697875976562	0		3.133434326171875	0.1804572296142578	0		4.62313427734375	0.4202479553222656	0		5.987623046875	0.5292058715820313	0		-0.37387747192382814	5.86399072265625	0		
0.0215402889251709	0.0020427019596099853	0		0.5804336547851563	-2.3802333984375	0		-0.9926949462890625	-0.013829228401184081	0		-0.3305292358398437	-2.64525341796875	0		1.6987879638671874	-0.5313935546875	0		3.1326904296875	0.18091537475585937	0		4.62039892578125	0.41960537719726565	0		5.985548828125	0.5054037170410156	0		-0.36003335571289063	5.8755830078125	0		
-0.06028305816650391	6.646000146865845E-4	0		0.5295173950195312	-2.3710048828125	0		-0.9894474487304687	-0.009057486534118652	0		-0.2927732543945312	-2.663926513671875	0		1.6979451904296874	-0.530817626953125	0		3.113199951171875	0.20757188415527345	0		4.61878515625	0.43293075561523436	0		5.996466796875	0.5209929809570313	0		-0.37924761962890624	5.881552734375	0		
0.019926755905151368	0.0035033369064331053	0		0.5304945678710937	-2.368341064453125	0		-1.047185302734375	-5.905680060386657E-4	0		-0.32781060791015626	-2.659782470703125	0		1.69229931640625	-0.5101882019042969	0		3.13110986328125	0.18180126953125	0		4.60394140625	0.42738339233398437	0		5.98958740234375	0.5473906860351563	0		-0.3795048828125	5.882326171875	0		
0.019101764678955076	0.004245034217834473	0		0.5554063720703125	-2.369943359375	0		-0.9739253540039062	0.007425048828125	0		-0.25313400268554687	-2.679860107421875	0		1.691422607421875	-0.5096150512695312	0		3.1453017578125	0.182060546875	0		4.599091796875	0.4217085266113281	0		5.99684912109375	0.5474096069335938	0		-0.360794921875	5.87789404296875	0		
0.015241789817810058	0.0010246139764785766	0		0.5424110107421874	-2.363118408203125	0		-1.031656494140625	0.015921937942504884	0		-0.33710052490234377	-2.667143798828125	0		1.687508544921875	-0.5130112915039062	0		3.0923955078125	0.1730686798095703	0		4.5844013671875	0.42913088989257814	0		5.99332275390625	0.5269215698242188	0		-0.3609921569824219	5.87867919921875	0		
0.01445049285888672	0.0017697720527648927	0		0.5413634033203125	-2.362430419921875	0		-0.9634048461914062	0.019988773345947265	0		-0.2743000183105469	-2.677093994140625	0		1.672765625	-0.5032873840332032	0		3.1066103515625	0.1723082275390625	0		4.58365673828125	0.4293807067871094	0		5.9826796875	0.5065985717773438	0		-0.3450440368652344	5.88828125	0		
0.02752922248840332	-0.011650978088378906	0		0.52629833984375	-2.3655859375	0		-1.10110546875	0.026423938751220705	0		-0.33238543701171874	-2.6786611328125	0		1.6780323486328126	-0.49580032348632813	0		3.10784765625	0.17068359375	0		4.577015625	0.4356847839355469	0		5.989431640625	0.5393953247070312	0		-0.3631150817871094	5.89226953125	0		
0.037923126220703124	-0.0010499249696731567	0		0.556369384765625	-2.36027392578125	0		-1.0057716064453126	0.03115742301940918	0		-0.2865258483886719	-2.688439453125	0		1.6443634033203125	-0.48586904907226564	0		3.120168212890625	0.17291766357421876	0		4.5775068359375	0.44989422607421875	0		5.99536669921875	0.5445039672851563	0		-0.36515423583984374	5.89506689453125	0		
